<?xml version="1.0" encoding="utf-8"?>
<!-- Generator: Adobe Illustrator 26.5.0, SVG Export Plug-In . SVG Version: 6.00 Build 0)  -->
<svg version="1.1" id="Capa_1" xmlns="http://www.w3.org/2000/svg" xmlns:xlink="http://www.w3.org/1999/xlink" x="0px" y="0px"
	 viewBox="0 0 77 40" style="enable-background:new 0 0 77 40;" xml:space="preserve">
<style type="text/css">
	.st0{fill:#FFFFFF;}
	.st1{fill:#F8AB1D;}
</style>
<g>
	<g>
		<path class="st0" d="M43.48,35.61c-0.93,0-1.81,0-2.75,0c0-1.9,0-3.77,0-5.68c-1,0-1.94,0-2.98,0c0,1.88,0,3.76,0,5.67
			c-1,0-1.89,0-2.81,0c0-4.69,0-9.33,0-14.01c0.92,0,1.81,0,2.78,0c0,1.85,0,3.69,0,5.58c1.01,0,1.94,0,2.98,0c0-1.83,0-3.69,0-5.58
			c0.97,0,1.84,0,2.78,0C43.48,26.24,43.48,30.9,43.48,35.61z"/>
		<path class="st0" d="M75.35,35.65c-1,0-1.88,0.03-2.76-0.02c-0.21-0.01-0.49-0.26-0.6-0.47c-0.72-1.44-1.4-2.89-2.09-4.34
			c-0.06-0.13-0.15-0.26-0.25-0.43c-1.52,1.56-0.56,3.49-0.94,5.23c-0.83,0-1.67,0-2.58,0c0-4.67,0-9.32,0-14.02
			c0.88,0,1.72,0,2.66,0c0,1.73,0,3.43,0,5.12c0.06,0.01,0.12,0.03,0.17,0.04c0.13-0.29,0.26-0.58,0.4-0.86
			c0.68-1.33,1.36-2.67,2.05-3.99c0.08-0.15,0.27-0.33,0.41-0.34c0.94-0.03,1.88-0.02,2.94-0.02c-0.55,0.96-1.03,1.81-1.52,2.66
			c-0.56,0.97-1.1,1.96-1.71,2.9c-0.3,0.47-0.24,0.81,0.01,1.26c1.19,2.21,2.35,4.43,3.52,6.65C75.15,35.19,75.22,35.37,75.35,35.65
			z"/>
		<path class="st0" d="M48.33,21.54c0.92,0,1.78-0.03,2.63,0.02c0.18,0.01,0.44,0.31,0.5,0.51c0.76,3.05,1.49,6.11,2.22,9.17
			c0.34,1.43,0.68,2.86,1.03,4.35c-0.97,0-1.88,0-2.87,0c-0.12-0.58-0.27-1.17-0.37-1.77c-0.06-0.37-0.2-0.54-0.59-0.52
			c-0.7,0.03-1.41-0.02-2.11,0.03c-0.18,0.01-0.45,0.23-0.51,0.41c-0.18,0.61-0.29,1.24-0.42,1.88c-0.95,0-1.87,0-2.88,0
			C46.08,30.93,47.19,26.28,48.33,21.54z M49.9,25.24c-0.04,0-0.08,0-0.11-0.01c-0.28,1.78-0.57,3.56-0.85,5.36
			c0.65,0,1.22,0,1.82,0C50.46,28.76,50.18,27,49.9,25.24z"/>
		<path class="st0" d="M33.04,25.34c-0.93,0-1.83,0-2.77,0c-0.09-0.72-0.37-1.36-1.18-1.34c-0.41,0.01-0.98,0.21-1.17,0.51
			c-0.19,0.3-0.14,0.94,0.07,1.26c0.3,0.46,0.81,0.79,1.27,1.11c0.81,0.57,1.7,1.03,2.47,1.64c2,1.62,2.2,4.7,0.39,6.3
			c-1.46,1.29-3.21,1.35-4.98,0.81c-1.5-0.46-2.26-1.61-2.5-3.12c-0.05-0.28-0.03-0.56-0.05-0.89c0.97,0,1.88,0,2.8,0
			c0.37,1.33,0.72,1.63,1.79,1.55c0.97-0.08,1.54-0.99,1.09-1.85c-0.21-0.39-0.55-0.75-0.91-1.02c-0.78-0.58-1.63-1.05-2.41-1.62
			c-1.49-1.09-2.35-2.5-2-4.42c0.29-1.59,1.28-2.61,2.88-2.85c0.75-0.11,1.54-0.12,2.29,0C32.02,21.73,33.17,23.3,33.04,25.34z"/>
		<path class="st0" d="M64.22,25.77c-0.92,0-1.79,0-2.68,0c-0.06-0.24-0.11-0.45-0.18-0.66c-0.23-0.79-0.81-1.17-1.65-1.11
			c-0.72,0.05-1.23,0.47-1.26,1.28c-0.06,2.13-0.08,4.27-0.04,6.41c0.02,0.97,0.49,1.42,1.27,1.48c0.94,0.08,1.54-0.37,1.77-1.31
			c0.03-0.13,0.05-0.26,0.08-0.43c0.9,0,1.79,0,2.68,0c0.22,1.53-0.59,3.22-1.9,3.88c-1.52,0.76-3.11,0.8-4.67,0.15
			c-1.35-0.57-2.04-1.72-2.1-3.12c-0.1-2.31-0.15-4.63-0.06-6.94c0.13-3.62,2.86-4.46,5.35-4.03C63.05,21.75,64.39,23.5,64.22,25.77
			z"/>
		<path class="st1" d="M25.29,19.57c0-3.81,0-7.55,0-11.31c1.38,0,2.73-0.13,4.05,0.03c1.98,0.24,3.03,2.51,2.17,4.46
			c-0.15,0.34-0.36,0.65-0.58,1.04c0.95,0.71,1.34,1.69,1.23,2.9c-0.16,1.64-1.43,2.85-3.08,2.87
			C27.82,19.58,26.57,19.57,25.29,19.57z M27.54,17.44c0.82-0.04,1.65,0.26,2.16-0.57c0.32-0.52,0.26-1.08-0.13-1.54
			c-0.57-0.66-1.32-0.34-2.03-0.4C27.54,15.81,27.54,16.58,27.54,17.44z M27.5,11.53c0,0.13,0,0.26,0,0.4
			c0,0.93,0.04,0.96,0.96,0.88c0.75-0.07,1.08-0.55,1.01-1.47c-0.06-0.74-0.52-1.03-1.47-1.02c-0.8,0.01-0.41,0.6-0.5,0.95
			C27.49,11.35,27.51,11.44,27.5,11.53z"/>
		<path class="st1" d="M72.57,15.31c0.69,1.4,1.37,2.78,2.11,4.26c-0.82,0-1.53,0.03-2.25-0.02c-0.15-0.01-0.33-0.26-0.41-0.43
			c-0.46-0.93-0.92-1.86-1.33-2.8c-0.21-0.49-0.51-0.69-1.1-0.49c0,1.19,0,2.41,0,3.69c-0.79,0-1.5,0-2.25,0c0-3.75,0-7.49,0-11.37
			c1.46,0.06,2.93-0.01,4.34,0.22c1.72,0.28,2.68,2.05,2.46,4.05C74.02,13.59,73.61,14.59,72.57,15.31z M69.55,10.44
			c0,0.79,0,1.55,0,2.32c0,0.15-0.02,0.31,0.01,0.46c0.03,0.13,0.1,0.31,0.2,0.35c0.77,0.34,1.75-0.12,1.98-0.9
			C72.22,11.05,71.32,10.08,69.55,10.44z"/>
		<path class="st1" d="M50.06,19.57c-0.77,0-1.46,0.03-2.13-0.02c-0.18-0.01-0.4-0.24-0.49-0.42c-0.48-0.94-0.94-1.89-1.37-2.86
			c-0.22-0.51-0.54-0.64-1.09-0.43c0,1.19,0,2.4,0,3.67c-0.77,0-1.47,0-2.23,0c0-3.73,0-7.47,0-11.31c1.56,0.1,3.15-0.24,4.69,0.27
			c1.63,0.54,2.23,2.13,2.09,4c-0.08,1.06-0.42,2.02-1.33,2.7c-0.1,0.07-0.07,0.44,0.01,0.61c0.5,1.06,1.03,2.09,1.55,3.14
			C49.86,19.1,49.94,19.3,50.06,19.57z M44.99,13.57c0.78,0.03,1.58,0.25,2-0.55c0.36-0.69,0.38-1.47-0.06-2.14
			c-0.47-0.72-1.22-0.52-1.94-0.51C44.99,11.45,44.99,12.47,44.99,13.57z"/>
		<path class="st1" d="M58,11.61c-0.74,0-1.42,0-2.14,0c-0.06-0.18-0.13-0.36-0.18-0.54c-0.15-0.61-0.55-0.88-1.15-0.87
			c-0.63,0.01-1.07,0.33-1.15,0.96c-0.08,0.65-0.07,1.32-0.08,1.98c-0.01,1.04-0.02,2.07,0.01,3.11c0.03,0.96,0.48,1.39,1.32,1.37
			c0.71-0.02,1.11-0.35,1.19-1.06c0.05-0.38,0.01-0.78,0.01-1.22c-0.45-0.02-0.85-0.04-1.31-0.06c0-0.64,0-1.24,0-1.9
			c1.16,0,2.31,0,3.63,0c-0.1,1.44-0.09,2.85-0.32,4.22c-0.16,1-0.89,1.7-1.91,2c-0.95,0.29-1.92,0.31-2.86-0.01
			c-1.38-0.47-2.03-1.55-2.06-2.93c-0.05-1.89-0.05-3.79,0.04-5.68c0.08-1.64,1.19-2.7,2.82-2.9C56.4,7.75,57.86,8.98,58,11.61z"/>
		<path class="st1" d="M33.62,8.24c0.75,0,1.47,0,2.3,0c0,0.25,0,0.51,0,0.76c0,2.22,0,4.45,0,6.67c0,0.33,0,0.67,0.08,0.98
			c0.14,0.56,0.5,0.91,1.13,0.93c0.65,0.02,1.05-0.3,1.21-0.9c0.09-0.34,0.11-0.7,0.11-1.05c0.01-2.18,0-4.36,0-6.54
			c0-0.26,0-0.53,0-0.84c0.78,0,1.51,0,2.26,0c0.02,0.16,0.05,0.28,0.05,0.41c0,2.6,0.01,5.2-0.03,7.8
			c-0.02,1.13-0.44,2.13-1.44,2.75c-1.28,0.79-2.66,0.8-3.98,0.15c-1.25-0.61-1.72-1.78-1.73-3.12c-0.03-2.51-0.01-5.02-0.01-7.53
			C33.58,8.57,33.6,8.42,33.62,8.24z"/>
		<path class="st1" d="M65.08,14.85c-1.07,0-2.1,0-3.16,0c0,0.89,0,1.69,0,2.57c1.21,0,2.39,0,3.63,0c0,0.73,0,1.4,0,2.11
			c-1.95,0-3.9,0-5.88,0c0-3.77,0-7.51,0-11.28c1.9,0,3.79,0,5.73,0c0,0.67,0,1.33,0,2.09c-0.96,0-1.9,0.02-2.84-0.01
			c-0.5-0.02-0.69,0.13-0.69,0.66c0.01,1.81-0.01,1.81,1.84,1.81c0.44,0,0.88,0,1.37,0C65.08,13.47,65.08,14.1,65.08,14.85z"/>
		<path class="st1" d="M14.72,6.11c-3.22,0.96-4.94,3.64-3.26,6.34c0.43,0.69,0.81,1.42,1.07,2.18c0.37,1.06-0.01,1.94-0.88,2.35
			c-0.91,0.42-2.09,0.14-2.65-0.7c-0.41-0.62-0.72-1.31-1.09-1.96c-0.48-0.85-1.11-1.51-2.22-1.6c0.02,0.13,0.01,0.22,0.05,0.28
			c1.12,2.07,0.45,3.81-0.97,5.43c-0.61,0.69-1.23,1.39-1.73,2.16c-0.8,1.23-1.07,2.59-0.61,4.04c0.05,0.17-0.05,0.38-0.08,0.58
			c-0.16-0.15-0.4-0.27-0.45-0.44c-0.66-2.13,0.08-3.93,1.41-5.56c0.49-0.6,1.03-1.15,1.5-1.76c1.19-1.55,1.24-2.86,0.23-4.51
			c-0.12-0.19-0.15-0.43-0.23-0.65c0.23-0.05,0.45-0.14,0.68-0.14c1.32,0,2.25,0.66,2.88,1.77c0.35,0.61,0.6,1.29,1.03,1.84
			c0.28,0.37,0.76,0.69,1.2,0.8c0.92,0.23,1.69-0.57,1.44-1.48c-0.19-0.69-0.52-1.35-0.88-1.98c-0.53-0.93-0.98-1.88-0.92-2.98
			c0.07-1.31,0.63-2.42,1.7-3.14c1.01-0.68,2.14-1.19,3.23-1.76c0.13-0.07,0.33,0,0.49,0c0,0.16,0.05,0.36-0.02,0.48
			c-1.17,2.16-0.37,3.96,1.06,5.61c1.21,1.4,2.53,2.71,3.71,4.13c2.23,2.68,2.98,5.73,2.06,9.14c-0.02,0.06-0.01,0.14-0.05,0.19
			c-0.12,0.15-0.26,0.3-0.4,0.44c-0.05-0.19-0.15-0.39-0.13-0.57c0.08-0.63,0.25-1.25,0.31-1.88c0.33-3.08-0.95-5.57-2.94-7.78
			c-1.13-1.26-2.3-2.49-3.4-3.78c-1.24-1.45-1.73-3.1-1.11-4.98C14.76,6.19,14.73,6.15,14.72,6.11z"/>
		<path class="st1" d="M12.18,25.34c-2.53,0-5.06,0-7.6,0c-0.98,0-1.33-0.35-1.29-1.31c0.07-1.5,0.91-2.58,2.03-3.47
			c1.55-1.23,3.37-1.81,5.3-1.99c2.19-0.2,4.36-0.08,6.42,0.8c1.72,0.74,3.2,1.78,3.88,3.64c0.08,0.21,0.14,0.42,0.17,0.64
			c0.19,1.27-0.18,1.7-1.46,1.7C17.16,25.34,14.67,25.34,12.18,25.34C12.18,25.34,12.18,25.34,12.18,25.34z M12.2,24.87
			C12.2,24.87,12.2,24.87,12.2,24.87c2.33,0,4.67,0,7,0c1.53,0,1.81-0.42,1.22-1.87c-0.06-0.14-0.13-0.28-0.2-0.42
			c-0.7-1.24-1.8-2.03-3.05-2.63c-2.16-1.02-4.45-1.12-6.78-0.86c-1.92,0.22-3.68,0.87-5.14,2.18c-0.75,0.68-1.31,1.49-1.46,2.52
			c-0.12,0.87,0.07,1.07,0.94,1.07C7.23,24.87,9.71,24.87,12.2,24.87z"/>
		<path class="st1" d="M12.23,33.07c2.71,0,5.42,0.01,8.13-0.01c0.56-0.01,0.83,0.14,0.76,0.74c-0.04,0.3,0.01,0.62-0.04,0.92
			c-0.11,0.71-0.55,1.09-1.27,1.09c-5.04,0.01-10.09,0.01-15.13,0c-0.85,0-1.33-0.45-1.33-1.3c-0.01-1.71-0.17-1.43,1.35-1.44
			C7.21,33.06,9.72,33.07,12.23,33.07z M12.24,33.54C12.24,33.54,12.24,33.54,12.24,33.54c-2.51,0-5.02,0-7.54,0
			c-0.9,0-1.03,0.16-0.88,1.04c0.11,0.64,0.55,0.76,1.12,0.76c4.83-0.01,9.65-0.01,14.48-0.01c0.15,0,0.31,0.01,0.46-0.01
			c0.54-0.08,0.77-0.53,0.74-1.28c-0.02-0.6-0.43-0.5-0.79-0.5C17.31,33.54,14.78,33.54,12.24,33.54z"/>
		<path class="st1" d="M17.72,30.45c-0.66,0-1.32,0.02-1.98-0.01c-0.23-0.01-0.45-0.18-0.68-0.28c0.24-0.09,0.48-0.26,0.72-0.26
			c1.3-0.03,2.6-0.02,3.9-0.01c0.49,0.01,0.93-0.07,0.93-0.66c0-0.59-0.45-0.62-0.93-0.68c-2.05-0.24-3.82,0.33-5.35,1.7
			c-0.15,0.13-0.31,0.24-0.48,0.36c-2,1.37-1.36,1.25-3.2,0.08c-0.22-0.14-0.52-0.21-0.79-0.22c-1.76-0.02-3.52,0-5.29-0.01
			c-0.94-0.01-1.39-0.53-1.3-1.42c0.06-0.61,0.47-1,1.09-1.01C5.21,28,6.1,27.87,6.92,28.05c0.88,0.19,1.73,0.6,2.52,1.04
			c0.82,0.46,1.56,1.07,2.31,1.64c0.34,0.26,0.61,0.24,0.94-0.01c0.77-0.58,1.57-1.13,2.36-1.7c1-0.71,2.07-1.14,3.33-1.03
			c0.52,0.05,1.06,0,1.59,0.01c0.79,0.02,1.19,0.42,1.21,1.18c0.02,0.8-0.37,1.21-1.19,1.26c-0.04,0-0.09,0.01-0.13,0.01
			C19.13,30.45,18.43,30.45,17.72,30.45z M9.42,29.88c-1.54-1.59-3.37-1.38-5.16-1.27c-0.16,0.01-0.43,0.47-0.4,0.69
			c0.02,0.21,0.36,0.55,0.57,0.55C6.04,29.9,7.66,29.88,9.42,29.88z"/>
		<path class="st1" d="M21.05,27.2c-0.51-0.13-1.05-0.19-1.52-0.41c-0.61-0.27-1.13-0.28-1.67,0.11c-0.87,0.63-1.75,0.63-2.62-0.01
			c-0.57-0.42-1.14-0.4-1.7,0c-0.88,0.64-1.74,0.63-2.62,0c-0.56-0.41-1.14-0.42-1.71,0c-0.88,0.64-1.74,0.63-2.62-0.01
			c-0.53-0.39-1.07-0.37-1.68-0.1c-0.47,0.21-1,0.28-1.51,0.42c-0.04-0.08-0.07-0.15-0.11-0.23c0.08-0.1,0.14-0.27,0.24-0.3
			c0.55-0.2,1.11-0.47,1.69-0.53c0.49-0.05,1.08,0.02,1.49,0.27c0.81,0.48,1.52,0.57,2.31-0.01c0.7-0.51,1.45-0.46,2.15,0.03
			c0.69,0.49,1.34,0.55,2.06,0.03c0.76-0.55,1.56-0.57,2.33,0c0.67,0.49,1.32,0.49,2,0c0.73-0.53,1.5-0.52,2.3-0.1
			c0.25,0.13,0.54,0.17,0.81,0.26c0.18,0.06,0.34,0.16,0.51,0.24C21.12,26.97,21.08,27.09,21.05,27.2z"/>
		<path class="st1" d="M7.32,4.04c1.35,0.41,2.21,2.01,1.86,3.43C9.07,7.9,8.91,8.31,8.73,8.71c-0.32,0.71-0.58,1.43-0.32,2.22
			c0.02,0.06-0.05,0.15-0.08,0.23c-1.31-0.4-2.16-2.07-1.59-3.35c0.5-1.14,0.92-2.23,0.5-3.47C7.21,4.25,7.29,4.14,7.32,4.04z
			 M8.11,5.22c-0.3,0.85-0.6,1.75-0.93,2.63c-0.33,0.88-0.15,1.66,0.54,2.21c0.3-0.77,0.62-1.53,0.9-2.31
			C9.02,6.65,8.77,5.67,8.11,5.22z"/>
		<path class="st1" d="M7.43,32.11c-1.15,0-2.29,0.01-3.44-0.01c-0.18,0-0.36-0.15-0.54-0.23c0.19-0.09,0.37-0.26,0.56-0.26
			c2.25-0.02,4.5-0.02,6.74,0c0.18,0,0.37,0.15,0.55,0.22c-0.19,0.09-0.37,0.26-0.56,0.27C9.64,32.12,8.53,32.11,7.43,32.11z"/>
		<path class="st1" d="M18.15,32.11c-0.66,0-1.32,0.01-1.98-0.01c-0.13-0.01-0.26-0.16-0.39-0.25c0.13-0.08,0.26-0.24,0.4-0.24
			c1.34-0.02,2.68-0.01,4.02,0c0.12,0,0.24,0.14,0.36,0.21c-0.12,0.09-0.24,0.27-0.36,0.27C19.51,32.12,18.83,32.11,18.15,32.11z"/>
		<path class="st1" d="M13.27,28.55c-0.48,0-0.97,0.02-1.45-0.01c-0.15-0.01-0.29-0.18-0.44-0.27c0.13-0.09,0.26-0.25,0.39-0.25
			c0.99-0.02,1.97-0.02,2.96,0c0.12,0,0.24,0.17,0.36,0.27c-0.12,0.09-0.25,0.25-0.38,0.25C14.24,28.57,13.76,28.55,13.27,28.55
			C13.27,28.55,13.27,28.55,13.27,28.55z"/>
		<path class="st1" d="M14.44,31.61c0.15,0,0.31-0.03,0.45,0.01c0.1,0.03,0.17,0.16,0.25,0.24c-0.09,0.08-0.16,0.22-0.26,0.23
			c-0.26,0.03-0.52,0.05-0.78,0.01c-0.16-0.02-0.3-0.16-0.45-0.25c0.15-0.08,0.3-0.18,0.46-0.24C14.21,31.57,14.33,31.6,14.44,31.61
			C14.44,31.6,14.44,31.6,14.44,31.61z"/>
		<path class="st1" d="M9.55,28.01c0.34,0,0.69-0.03,1.03,0.02c0.1,0.02,0.18,0.25,0.26,0.38c-0.33,0.05-0.66,0.13-0.99,0.12
			c-0.13,0-0.26-0.22-0.39-0.33C9.49,28.13,9.52,28.07,9.55,28.01z"/>
	</g>
</g>
</svg>
